<svg xmlns="http://www.w3.org/2000/svg" xmlns:xlink="http://www.w3.org/1999/xlink" width="10" height="10" viewBox="0 0 10 10" fill="none">
<path d="M7.34786 2.35066C7.42959 2.35066 7.50042 2.38084 7.56005 2.44017C7.61997 2.49956 7.64975 2.57096 7.64975 2.65241C7.64975 2.73593 7.61997 2.80729 7.56005 2.86667L7.13355 3.29313C7.07561 3.35145 7.00493 3.38061 6.9214 3.38061C6.83474 3.38061 6.76319 3.35145 6.70569 3.29516C6.64824 3.23781 6.61975 3.16539 6.61975 3.07886C6.61975 2.9954 6.64863 2.925 6.7068 2.86667L7.13326 2.44017C7.19322 2.38084 7.26458 2.35066 7.34791 2.35066L7.34786 2.35066ZM7.71566 4.69827L8.31916 4.69827C8.40244 4.69827 8.47365 4.72743 8.53241 4.78676C8.59165 4.84615 8.621 4.91654 8.621 5.00001C8.621 5.08354 8.59165 5.1549 8.53241 5.21327C8.47365 5.2726 8.40244 5.30176 8.31916 5.30176L7.71566 5.30176C7.63237 5.30176 7.56135 5.2726 7.50211 5.21327C7.44335 5.1549 7.41367 5.08349 7.41367 5.00001C7.41367 4.91649 7.44335 4.8461 7.50211 4.78676C7.56135 4.72743 7.63237 4.69827 7.71566 4.69827ZM5.00001 1.37903C5.0833 1.37903 5.15422 1.4092 5.21341 1.46752C5.27221 1.52691 5.30186 1.59832 5.30186 1.68078L5.30186 2.28428C5.30186 2.3678 5.27221 2.43916 5.21346 2.49753C5.15422 2.55687 5.0833 2.58704 5.00001 2.58704C4.91664 2.58704 4.84571 2.55687 4.78647 2.49753C4.72772 2.43916 4.69807 2.36775 4.69807 2.28428L4.69807 1.68078C4.69807 1.59832 4.72772 1.52686 4.78647 1.46752C4.84576 1.4092 4.91668 1.37903 5.00006 1.37903L5.00001 1.37903ZM2.65444 2.35066C2.73613 2.35066 2.80691 2.38084 2.86677 2.44017L3.29323 2.86667C3.35319 2.92601 3.38279 2.99742 3.38279 3.07886C3.38279 3.16239 3.35338 3.23379 3.29434 3.29211C3.23543 3.3515 3.16442 3.38061 3.08094 3.38061C2.99602 3.38061 2.92442 3.35145 2.86658 3.29415L2.43998 2.86764C2.38166 2.80932 2.35279 2.73792 2.35279 2.65241C2.35279 2.56889 2.38214 2.49849 2.44138 2.43916C2.50014 2.38084 2.57135 2.35066 2.65483 2.35066L2.65444 2.35066ZM6.9214 6.61739C7.00309 6.61739 7.07382 6.64655 7.13355 6.7069L7.56005 7.1334C7.61997 7.19376 7.64975 7.26415 7.64975 7.34762C7.64975 7.42912 7.61997 7.50052 7.56005 7.55986C7.50038 7.62021 7.42959 7.64937 7.34791 7.64937C7.26462 7.64937 7.19322 7.62021 7.13326 7.55986L6.7068 7.1334C6.64863 7.07604 6.61975 7.00463 6.61975 6.92117C6.61975 6.83764 6.64916 6.76624 6.7082 6.7069C6.7671 6.64756 6.83836 6.61739 6.9216 6.61739L6.9214 6.61739ZM5.00006 3.79302C4.66684 3.79302 4.38266 3.91073 4.14663 4.14706C3.91092 4.38242 3.79297 4.66708 3.79297 5.00001C3.79297 5.33295 3.91092 5.61761 4.14663 5.85399C4.38271 6.08925 4.66684 6.20701 5.00001 6.20701C5.33324 6.20701 5.61751 6.0893 5.8536 5.85394C6.08906 5.61766 6.20701 5.333 6.20701 5.00001C6.20701 4.66708 6.08906 4.38242 5.8536 4.14706C5.61751 3.91073 5.33324 3.79302 5.00001 3.79302L5.00006 3.79302ZM1.68087 4.69827L2.28437 4.69827C2.36775 4.69827 2.43868 4.72743 2.49792 4.78676C2.55667 4.84615 2.58636 4.91654 2.58636 5.00001C2.58636 5.08354 2.55667 5.1549 2.49792 5.21327C2.43868 5.2726 2.36775 5.30176 2.28437 5.30176L1.68087 5.30176C1.59759 5.30176 1.52648 5.2726 1.46762 5.21327C1.40838 5.1549 1.37903 5.08349 1.37903 5.00001C1.37903 4.91649 1.40838 4.8461 1.46762 4.78676C1.52653 4.72743 1.59759 4.69827 1.68087 4.69827ZM5.00006 7.414C5.08334 7.414 5.15427 7.44316 5.21346 7.5025C5.27226 7.56188 5.30191 7.63228 5.30191 7.71575L5.30191 8.31925C5.30191 8.40277 5.27226 8.47413 5.21351 8.53251C5.15427 8.59183 5.08334 8.621 5.00001 8.621C4.91664 8.621 4.84571 8.59183 4.78647 8.53251C4.72772 8.47413 4.69807 8.40272 4.69807 8.31925L4.69807 7.71575C4.69807 7.63223 4.72772 7.56183 4.78647 7.5025C4.84571 7.44316 4.91664 7.414 5.00001 7.414L5.00006 7.414ZM3.08133 6.61739C3.16437 6.61739 3.23563 6.64655 3.29467 6.7069C3.35358 6.76628 3.38327 6.83769 3.38327 6.92117C3.38327 7.00363 3.35319 7.07402 3.29347 7.13335L2.86697 7.55986C2.80734 7.62021 2.73661 7.64937 2.65483 7.64937C2.57135 7.64937 2.50014 7.62021 2.44143 7.56183C2.38214 7.5025 2.35279 7.4311 2.35279 7.34762C2.35279 7.26313 2.38166 7.19167 2.43998 7.13335L2.86658 6.7069C2.92621 6.64655 2.99786 6.61739 3.08094 6.61739L3.08133 6.61739ZM5.00001 3.18953C5.32841 3.18953 5.63137 3.27102 5.90869 3.43189C6.18629 3.59488 6.40597 3.81412 6.56751 4.09172C6.72935 4.36837 6.81036 4.67109 6.81036 5.00001C6.81036 5.32894 6.72954 5.63166 6.56751 5.90926C6.40558 6.18591 6.18582 6.40515 5.90869 6.56809C5.6317 6.73002 5.32885 6.8105 5.00001 6.8105C4.67123 6.8105 4.36847 6.73002 4.09125 6.56814C3.81412 6.40515 3.59455 6.18586 3.43242 5.90926C3.27049 5.63166 3.18958 5.32894 3.18958 5.00001C3.18958 4.67109 3.27078 4.36837 3.43242 4.09172C3.59406 3.81412 3.81364 3.59488 4.09125 3.43194C4.36871 3.27097 4.67162 3.18953 5.00001 3.18953Z"   fill="#101010" >
</path>
</svg>
