<svg xmlns="http://www.w3.org/2000/svg" xmlns:xlink="http://www.w3.org/1999/xlink" width="21" height="18" viewBox="0 0 21 18" fill="none">
    <path d="M19.6732 18L1.31476 18C0.59104 18 0 17.4124 0 16.6929L0 16.6569C0 15.9374 0.59104 15.3498 1.31476 15.3498L19.6852 15.3498C20.409 15.3498 21 15.9374 21 16.6569L21 16.6929C20.9879 17.4124 20.3969 18 19.6732 18ZM19.6732 10.3251L1.31476 10.3251C0.59104 10.3251 0 9.73751 0 9.01799L0 8.98201C0 8.26249 0.59104 7.67488 1.31476 7.67488L19.6852 7.67488C20.409 7.67488 21 8.26249 21 8.98201L21 9.01799C20.9879 9.73751 20.3969 10.3251 19.6732 10.3251ZM19.6732 2.65023L1.31476 2.65023C0.59104 2.65023 0 2.06262 0 1.3431L0 1.30713C0 0.587608 0.59104 0 1.31476 0L19.6852 0C20.409 0 21 0.587608 21 1.30713L21 1.3431C20.9879 2.06262 20.3969 2.65023 19.6732 2.65023Z"   fill="#000000" >
    </path>
</svg>
