<svg xmlns="http://www.w3.org/2000/svg" xmlns:xlink="http://www.w3.org/1999/xlink" width="8" height="8" viewBox="0 0 8 8" fill="currentColor">
<path d="M2.65201 6.96805C2.65201 6.96805 2.64801 6.96805 2.64401 6.96405L2.54001 6.92805C2.27601 6.83605 2.27201 6.83205 2.10401 6.75605C1.99201 6.70405 1.67201 6.48805 1.49601 6.36405C1.48801 6.36005 1.48001 6.35205 1.47201 6.34805C1.40401 6.29205 1.34001 6.23205 1.27601 6.16805C0.936013 5.82405 0.692012 5.42005 0.540012 4.96405C1.64001 5.57205 3.00401 5.37605 3.89601 4.47205C4.78801 3.56805 4.98001 2.18805 4.38001 1.07605C4.83201 1.22805 5.22801 1.47605 5.56801 1.82005C5.73601 1.99205 5.88001 2.18005 6.00401 2.38005L6.04001 2.44005C6.16801 2.69205 6.16801 2.69605 6.23601 2.86805C6.30001 3.03605 6.40801 3.41205 6.40801 3.41605C6.44001 3.52805 6.54001 3.60005 6.64801 3.60005C6.67201 3.60005 6.69201 3.59605 6.71601 3.58805C6.84801 3.54805 6.92801 3.40805 6.88801 3.27605C6.88801 3.27605 6.88801 3.27205 6.88401 3.26805L6.88801 3.26805C6.80401 2.86405 6.65601 2.48005 6.44401 2.12805L6.43201 2.10005C6.42401 2.08005 6.41201 2.06405 6.39601 2.04805C6.26001 1.83605 6.10401 1.63605 5.92401 1.45605C5.89891 1.43072 5.87344 1.40578 5.84761 1.38121C5.82176 1.35664 5.79556 1.33246 5.769 1.30868C5.74243 1.28489 5.71552 1.26151 5.68826 1.23852C5.66101 1.21554 5.6334 1.19296 5.60547 1.1708C5.57754 1.14864 5.54928 1.1269 5.52069 1.10558C5.49212 1.08427 5.46322 1.06338 5.43401 1.04293C5.40481 1.02247 5.37531 1.00245 5.34551 0.982881C5.3157 0.963303 5.28561 0.944176 5.25524 0.925498C5.22486 0.906822 5.19422 0.8886 5.1633 0.870834C5.13239 0.853074 5.10121 0.835775 5.06978 0.818936C5.03835 0.802103 5.00667 0.785742 4.97476 0.769855C4.94283 0.753966 4.91069 0.738556 4.8783 0.723626C4.84592 0.708696 4.81333 0.694252 4.78051 0.680294C4.7477 0.666336 4.71468 0.652871 4.68147 0.639898C4.64826 0.626925 4.61486 0.61445 4.58128 0.602473C4.54769 0.590496 4.51394 0.579023 4.48001 0.568054C4.33201 0.524053 4.10401 0.524053 3.96001 0.672053C3.80001 0.832053 3.82001 1.06405 3.88401 1.21205L3.89201 1.22405L3.90001 1.23605C4.44401 2.16405 4.29601 3.34405 3.54001 4.10805C2.78401 4.87205 1.62001 5.02005 0.708012 4.47205L0.696012 4.46405C0.616012 4.42405 0.336012 4.30005 0.152012 4.48405C-0.0279879 4.66405 0.0280121 4.96005 0.0480121 5.04405L0.0520121 5.06005C0.220012 5.60805 0.524012 6.11205 0.924013 6.52005C1.36801 6.96805 1.92001 7.29205 2.52401 7.45205C2.53601 7.45605 2.55201 7.45605 2.56401 7.45605C2.66801 7.45605 2.76401 7.39205 2.80001 7.28805C2.84801 7.16005 2.78001 7.01605 2.65201 6.96805Z"   fill="#E9EEF7" >
</path>
<path d="M4.156 5.24806C4.028 5.24806 3.924 5.35206 3.924 5.48006C3.924 5.60806 4.028 5.71206 4.156 5.71206L6.244 5.71206C6.372 5.71206 6.476 5.60806 6.476 5.48006C6.476 5.35206 6.372 5.24806 6.244 5.24806L4.156 5.24806ZM7.744 6.50006L3.264 6.50006C3.136 6.50006 3.032 6.60406 3.032 6.73206C3.032 6.86006 3.136 6.96406 3.264 6.96406L7.748 6.96406C7.87601 6.96406 7.98 6.86006 7.98 6.73206C7.97601 6.60406 7.87203 6.50006 7.744 6.50006ZM4.884 4.18406C4.884 4.31206 4.988 4.41606 5.116 4.41606L7.744 4.41606C7.87203 4.41606 7.97601 4.31206 7.97601 4.18406C7.97601 4.05606 7.87203 3.95206 7.744 3.95206L5.116 3.95206C4.988 3.95206 4.884 4.05606 4.884 4.18406ZM2.524 1.48006L2.7 1.48006L2.7 1.65606C2.7 1.74006 2.768 1.81206 2.856 1.81206C2.94 1.81206 3.012 1.74406 3.012 1.65606L3.012 1.48006L3.188 1.48006C3.272 1.48006 3.344 1.41206 3.344 1.32406C3.344 1.23606 3.276 1.16806 3.188 1.16806L3.012 1.16806L3.012 0.99206C3.012 0.90806 2.944 0.83606 2.856 0.83606C2.772 0.83606 2.7 0.904059 2.7 0.99206L2.7 1.16806L2.524 1.16806C2.44 1.16806 2.368 1.23606 2.368 1.32406C2.368 1.41206 2.44 1.48006 2.524 1.48006ZM0.923995 3.63606L1.21599 3.63606L1.21599 3.92806C1.21599 4.03606 1.30399 4.12406 1.40799 4.12406C1.51599 4.12406 1.59999 4.03606 1.59999 3.92806L1.59999 3.63606L1.89199 3.63606C1.99999 3.63606 2.08399 3.54806 2.08399 3.44006C2.08399 3.33206 1.99599 3.24406 1.89199 3.24406L1.59999 3.24406L1.59999 2.95206C1.59999 2.84406 1.51199 2.75606 1.40799 2.75606C1.29999 2.75606 1.21599 2.84406 1.21599 2.95206L1.21599 3.24406L0.923995 3.24406C0.815995 3.24406 0.731995 3.33206 0.731995 3.44006C0.731995 3.54806 0.815995 3.63606 0.923995 3.63606Z"   fill="#8A8A8A" >
</path>
</svg>
