<svg xmlns="http://www.w3.org/2000/svg" xmlns:xlink="http://www.w3.org/1999/xlink" width="16" height="22" viewBox="0 0 16 22" fill="none">
    <path d="M13.1429 13.3571C12.2065 13.3571 11.3834 13.9848 10.8622 14.9408L6.72824 12.2668C6.81027 11.8632 6.85714 11.4396 6.85714 11C6.85714 10.5603 6.81027 10.1367 6.72824 9.73318L10.8622 7.05915C11.3834 8.01519 12.2065 8.64285 13.1429 8.64285C14.721 8.64285 16 6.88418 16 4.71428C16 2.54439 14.721 0.785675 13.1429 0.785675C11.5648 0.785675 10.2857 2.54439 10.2857 4.71431C10.2857 5.03427 10.3214 5.34043 10.3733 5.63813L6.24275 8.3106C5.62331 7.08753 4.59486 6.28569 3.42858 6.28569C1.53459 6.28569 2.38419e-07 8.39578 2.38419e-07 11C2.38419e-07 13.6042 1.53459 15.7143 3.42858 15.7143C4.59486 15.7143 5.62331 14.9124 6.24275 13.6894L10.3733 16.3618C10.3214 16.6595 10.2857 16.9657 10.2857 17.2857C10.2857 19.4556 11.5648 21.2143 13.1429 21.2143C14.721 21.2143 16 19.4556 16 17.2857C16 15.1157 14.721 13.3571 13.1429 13.3571L13.1429 13.3571ZM13.1429 2.35713C14.0882 2.35713 14.8571 3.41446 14.8571 4.71428C14.8571 6.01411 14.0882 7.07142 13.1429 7.07142C12.1975 7.07142 11.4286 6.01409 11.4286 4.71428C11.4286 3.41448 12.1975 2.35713 13.1429 2.35713ZM3.42858 14.1428C2.16852 14.1428 1.14286 12.7326 1.14286 11C1.14286 9.2674 2.16852 7.85712 3.42858 7.85712C4.68864 7.85712 5.71428 9.2674 5.71428 11C5.71428 12.7326 4.68863 14.1428 3.42859 14.1428L3.42858 14.1428ZM13.1429 19.6428C12.1975 19.6428 11.4286 18.5855 11.4286 17.2857C11.4286 15.9859 12.1975 14.9286 13.1429 14.9286C14.0882 14.9286 14.8571 15.9859 14.8571 17.2857C14.8571 18.5855 14.0882 19.6428 13.1429 19.6428Z"   fill="url(#linear_fill_6CjencIrVogA5_vdHTbkP)" >
    </path>
    <defs>
        <linearGradient id="linear_fill_6CjencIrVogA5_vdHTbkP" x1="0" y1="16.736724853515625" x2="16" y2="4.4730224609375" gradientUnits="userSpaceOnUse">
            <stop offset="0" stop-color="#844EFE"  />
            <stop offset="1" stop-color="#E93D75"  />
        </linearGradient>
    </defs>
</svg>
