<svg xmlns="http://www.w3.org/2000/svg" xmlns:xlink="http://www.w3.org/1999/xlink" width="10.92822265625" height="10.92822265625" viewBox="0 0 10.92822265625 10.92822265625" fill="currentColor">
<path d="M2.43545 7.21007C2.36117 7.08142 2.40521 6.91683 2.53393 6.84252C2.66265 6.7682 2.82721 6.81236 2.90148 6.941C3.71744 8.35429 5.5312 8.84034 6.94456 8.02434C7.85691 7.49759 8.42413 6.51514 8.42494 5.46023C8.42504 5.3117 8.54558 5.19134 8.69415 5.19133C8.84272 5.19151 8.9633 5.31224 8.96303 5.46066C8.96217 6.70696 8.29179 7.8679 7.21362 8.49038C5.54327 9.45475 3.39978 8.88034 2.43545 7.21007Z"   fill="currentColor" >
</path>
<path d="M2.00584 5.75216C1.98508 5.71621 1.97231 5.67483 1.97021 5.63053C1.90743 4.31539 2.5763 3.08978 3.71575 2.43192C5.38611 1.46754 7.5296 2.04196 8.49393 3.71222C8.5682 3.84087 8.52417 4.00546 8.39544 4.07978C8.26672 4.1541 8.10216 4.10994 8.02789 3.98129C7.21193 2.56801 5.39817 2.08196 3.98482 2.89795C3.02059 3.45466 2.45459 4.49181 2.50783 5.60493C2.51486 5.75339 2.40031 5.8794 2.25185 5.88643C2.14777 5.8915 2.05453 5.83651 2.00584 5.75216Z"   fill="currentColor" >
</path>
<path d=""   fill="currentColor" >
</path>
<path d="M7.46831 6.1253C7.39403 5.99665 7.43826 5.83241 7.56699 5.75809L8.57674 5.17511C8.70546 5.10079 8.87629 5.14342 8.95056 5.27206L9.53354 6.28181C9.60781 6.41045 9.55858 6.57804 9.42985 6.65236C9.30113 6.72668 9.13137 6.68552 9.0571 6.55688L8.60736 5.77791L7.83566 6.22345C7.70694 6.29777 7.54258 6.25395 7.46831 6.1253Z"   fill="currentColor" >
</path>
<path d="M1.98127 5.81499L1.39829 4.80524C1.32401 4.6766 1.36771 4.51221 1.49644 4.43789C1.62516 4.36357 1.78937 4.40792 1.86365 4.53656L2.3134 5.31556L3.08863 4.86798C3.21735 4.79366 3.38172 4.83749 3.45599 4.96613C3.53027 5.09478 3.48603 5.25902 3.35731 5.33334L2.34757 5.91632C2.21884 5.99065 2.05554 5.94364 1.98127 5.81499Z"   fill="currentColor" >
</path>
</svg>
