<svg xmlns="http://www.w3.org/2000/svg" xmlns:xlink="http://www.w3.org/1999/xlink" width="11.25439453125" height="20.32867431640625" viewBox="0 0 11.25439453125 20.32867431640625" fill="none">
    <path d="M8.87437 10.1878L0.224816 18.7602C0.215961 18.769 0.207336 18.7779 0.198941 18.7871C0.190524 18.7963 0.182347 18.8057 0.17441 18.8153C0.166472 18.8248 0.158774 18.8346 0.151316 18.8445C0.143858 18.8545 0.136649 18.8647 0.129691 18.875C0.122732 18.8853 0.116034 18.8958 0.109597 18.9064C0.103139 18.9171 0.0969618 18.9279 0.0910653 18.9389C0.0851487 18.9498 0.0795031 18.9609 0.0741281 18.9721C0.0687743 18.9833 0.0636912 18.9947 0.0588778 19.0062C0.0540656 19.0176 0.0495453 19.0292 0.0453156 19.0409C0.0410662 19.0526 0.0371178 19.0645 0.0334722 19.0763C0.0298052 19.0882 0.0264406 19.1002 0.0233784 19.1123C0.0203161 19.1243 0.0175447 19.1365 0.0150661 19.1487C0.0126076 19.1609 0.0104408 19.1731 0.0085659 19.1854C0.00671196 19.1977 0.00514887 19.21 0.00387859 19.2224C0.00262832 19.2348 0.00168037 19.2472 0.00103474 19.2597C0.0003891 19.2721 4.48228e-05 19.2845 3.81469e-06 19.297C-3.81469e-05 19.3094 0.000232696 19.3218 0.00081539 19.3343C0.00137806 19.3467 0.00225353 19.3591 0.00344084 19.3715C0.00462818 19.3839 0.00611781 19.3962 0.00790978 19.4086C0.00972174 19.4209 0.0118265 19.4331 0.0142221 19.4454C0.0166178 19.4576 0.0193157 19.4697 0.022316 19.4818C0.0253162 19.4939 0.0286074 19.5059 0.0321912 19.5178C0.0357744 19.5297 0.039649 19.5415 0.0438156 19.5532C0.0479822 19.565 0.0524406 19.5766 0.0571909 19.5881C0.0619203 19.5996 0.0669412 19.611 0.0722531 19.6222C0.0775453 19.6335 0.0831175 19.6446 0.0889721 19.6556C0.0948265 19.6666 0.100941 19.6775 0.107316 19.6881C0.113691 19.6988 0.120326 19.7093 0.127222 19.7197C0.134139 19.73 0.141295 19.7402 0.148691 19.7502C0.156087 19.7602 0.163732 19.7701 0.171628 19.7797C0.179503 19.7893 0.187618 19.7987 0.195972 19.808C0.204306 19.8172 0.212868 19.8262 0.22166 19.835L0.490253 20.1046C0.499087 20.1135 0.508118 20.1221 0.517347 20.1305C0.526575 20.1388 0.536012 20.147 0.545659 20.1549C0.555284 20.1628 0.565106 20.1705 0.575128 20.1779C0.585128 20.1854 0.595315 20.1925 0.60569 20.1995C0.616043 20.2064 0.626565 20.2131 0.637253 20.2195C0.64794 20.2259 0.658775 20.2321 0.669753 20.238C0.680753 20.2439 0.691887 20.2495 0.703159 20.2548C0.714409 20.2602 0.725793 20.2652 0.737315 20.27C0.748815 20.2748 0.76044 20.2793 0.77219 20.2835C0.783918 20.2878 0.795743 20.2917 0.807659 20.2953C0.819596 20.299 0.831609 20.3023 0.84369 20.3054C0.855775 20.3084 0.867931 20.3112 0.880159 20.3136C0.892368 20.3161 0.90464 20.3183 0.916971 20.3201C0.929306 20.322 0.941671 20.3235 0.954065 20.3248C0.966481 20.326 0.978918 20.327 0.991378 20.3276C1.00382 20.3283 1.01627 20.3286 1.02875 20.3287C1.04121 20.3287 1.05367 20.3284 1.06613 20.3279C1.07859 20.3273 1.09102 20.3264 1.10344 20.3253C1.11586 20.324 1.12823 20.3226 1.14056 20.3208C1.1529 20.319 1.16519 20.3169 1.17744 20.3145C1.18967 20.3122 1.20184 20.3095 1.21394 20.3065C1.22604 20.3035 1.23807 20.3002 1.25003 20.2966C1.26197 20.2931 1.27381 20.2892 1.28556 20.285C1.29734 20.2809 1.30899 20.2765 1.32053 20.2718C1.33207 20.267 1.34349 20.262 1.35478 20.2568C1.36607 20.2515 1.37723 20.2459 1.38825 20.2401C1.39927 20.2343 1.41015 20.2282 1.42088 20.2218C1.43161 20.2155 1.44218 20.2089 1.4526 20.202C1.46299 20.1951 1.47322 20.188 1.48328 20.1806C1.49332 20.1733 1.50319 20.1657 1.51288 20.1578C1.52256 20.15 1.53205 20.1419 1.54131 20.1335C1.55061 20.1252 1.55969 20.1167 1.56856 20.1079L11.0299 10.7316C11.0388 10.7228 11.0474 10.7139 11.0557 10.7046C11.0641 10.6955 11.0723 10.6861 11.0802 10.6765C11.0882 10.6669 11.0958 10.6571 11.1033 10.6471C11.1107 10.6372 11.1179 10.627 11.1249 10.6167C11.1319 10.6064 11.1386 10.5959 11.145 10.5852C11.1514 10.5746 11.1576 10.5638 11.1635 10.5528C11.1694 10.5419 11.175 10.5308 11.1804 10.5195C11.1857 10.5083 11.1908 10.497 11.1956 10.4855C11.2004 10.474 11.205 10.4624 11.2092 10.4507C11.2134 10.439 11.2173 10.4272 11.221 10.4153C11.2246 10.4034 11.228 10.3914 11.2311 10.3794C11.2341 10.3673 11.2369 10.3551 11.2394 10.3429C11.2418 10.3307 11.244 10.3185 11.2459 10.3062C11.2477 10.2939 11.2493 10.2816 11.2506 10.2692C11.2518 10.2568 11.2527 10.2444 11.2534 10.2319C11.2541 10.2195 11.2544 10.2071 11.2544 10.1946C11.2545 10.1822 11.2542 10.1697 11.2536 10.1573C11.2531 10.1449 11.2522 10.1325 11.251 10.1201C11.2498 10.1077 11.2483 10.0953 11.2465 10.083C11.2447 10.0707 11.2427 10.0584 11.2402 10.0462C11.2379 10.034 11.2352 10.0219 11.2322 10.0098C11.2292 9.99771 11.2259 9.98571 11.2223 9.97377C11.2187 9.96187 11.2149 9.95005 11.2107 9.9383C11.2066 9.92659 11.2021 9.91496 11.1974 9.90343C11.1926 9.89193 11.1876 9.88055 11.1823 9.8693C11.1771 9.85802 11.1715 9.84687 11.1656 9.83587C11.1598 9.8249 11.1537 9.81405 11.1473 9.80337C11.141 9.79268 11.1343 9.78215 11.1275 9.7718C11.1206 9.7614 11.1134 9.75121 11.106 9.74121C11.0986 9.73121 11.091 9.72137 11.0831 9.71174C11.0753 9.70209 11.0672 9.69265 11.0588 9.68343C11.0505 9.67415 11.0419 9.66512 11.0331 9.65634L1.62744 0.224046C1.33044 -0.0733909 0.847253 -0.0749224 0.549128 0.220921L0.27891 0.488921C0.270076 0.49769 0.261452 0.506671 0.253035 0.515859C0.244638 0.525046 0.236472 0.534431 0.228535 0.544015C0.220597 0.553596 0.212889 0.563381 0.20541 0.573359C0.197951 0.583318 0.190742 0.593462 0.183784 0.603796C0.176826 0.614109 0.170129 0.624587 0.163691 0.635234C0.157232 0.645899 0.151055 0.656712 0.14516 0.667671C0.139243 0.678631 0.133597 0.689724 0.128222 0.700953C0.122847 0.712181 0.117763 0.723537 0.112972 0.735015C0.10816 0.746515 0.103628 0.758109 0.0993784 0.769796C0.095149 0.781502 0.0912009 0.793318 0.0875349 0.805234C0.083889 0.817127 0.080535 0.829109 0.0774718 0.841171C0.0743884 0.853234 0.0716181 0.865368 0.0691593 0.877577C0.0666809 0.889784 0.0645037 0.902046 0.0626287 0.914359C0.0607737 0.926671 0.0592118 0.939015 0.0579406 0.95139C0.0566912 0.963787 0.0557431 0.97619 0.0550975 0.988609C0.05443 1.00105 0.0540865 1.01349 0.0540656 1.02595C0.0540237 1.03841 0.054285 1.05085 0.0548468 1.06326C0.0554303 1.0757 0.0563153 1.08812 0.0575037 1.10051C0.0586909 1.11291 0.0601806 1.12527 0.0619715 1.13761C0.0637637 1.14992 0.0658578 1.16219 0.0682534 1.17442C0.070649 1.18663 0.0733471 1.19877 0.0763475 1.21086C0.0793465 1.22294 0.0826387 1.23494 0.0862215 1.24686C0.0898056 1.2588 0.0936803 1.27063 0.0978468 1.28236C0.102013 1.29409 0.106462 1.30571 0.111191 1.31723C0.115941 1.32873 0.120962 1.34012 0.126253 1.35139C0.131566 1.36266 0.137138 1.3738 0.142972 1.3848C0.148826 1.39577 0.154941 1.40661 0.161316 1.4173C0.167711 1.42801 0.174357 1.43853 0.181253 1.44889C0.188149 1.45926 0.195295 1.46945 0.202691 1.47945C0.210087 1.48947 0.217732 1.4993 0.225628 1.50892C0.233503 1.51856 0.241618 1.528 0.249972 1.53723C0.258305 1.54648 0.266867 1.55551 0.27566 1.56433L8.87437 10.1878Z"   fill="#8A8A8A" >
    </path>
</svg>
