<?xml version="1.0" standalone="no"?><!DOCTYPE svg PUBLIC "-//W3C//DTD SVG 1.1//EN" "http://www.w3.org/Graphics/SVG/1.1/DTD/svg11.dtd"><svg t="1734697653035" class="icon" viewBox="0 0 1024 1024" version="1.1" xmlns="http://www.w3.org/2000/svg" p-id="9767" xmlns:xlink="http://www.w3.org/1999/xlink" width="200" height="200"><path d="M716.8 801.962667c-89.6 0-170.666667-29.866667-234.666667-51.2-46.933333-17.066667-85.333333-29.866667-115.2-29.866667-21.333333 0-55.466667 8.533333-85.333333 21.333333-46.933333 17.066667-98.133333 29.866667-140.8 21.333334-34.133333-8.533333-59.733333-29.866667-76.8-64-21.333333-42.666667-17.066667-98.133333 8.533333-149.333334 34.133333-64 106.666667-179.2 230.4-358.4 34.133333-46.933333 76.8-89.6 123.733334-89.6 46.933333 0 85.333333 46.933333 115.2 89.6l89.6 132.266667 4.266666-4.266667c25.6-25.6 51.2-38.4 81.066667-38.4 25.6 0 51.2 12.8 72.533333 38.4 25.6 29.866667 76.8 132.266667 136.533334 247.466667l17.066666 34.133333c17.066667 29.866667 17.066667 64 8.533334 93.866667-8.533333 29.866667-34.133333 59.733333-64 72.533333-4.266667 4.266667-12.8 4.266667-21.333334 8.533334-38.4 17.066667-89.6 25.6-149.333333 25.6z m-349.866667-149.333334c42.666667 0 85.333333 17.066667 140.8 34.133334 64 21.333333 132.266667 46.933333 209.066667 46.933333 51.2 0 98.133333-4.266667 136.533333-17.066667 4.266667 0 8.533333-4.266667 8.533334-4.266666 12.8-8.533333 25.6-21.333333 29.866666-34.133334 4.266667-17.066667 4.266667-34.133333-4.266666-46.933333l-17.066667-34.133333c-38.4-76.8-102.4-209.066667-128-234.666667-4.266667-8.533333-17.066667-17.066667-25.6-17.066667-12.8 0-25.6 8.533333-34.133333 17.066667l-12.8 12.8 59.733333 98.133333c4.266667 4.266667 4.266667 12.8 4.266667 17.066667 0 12.8-4.266667 21.333333-17.066667 25.6-17.066667 8.533333-34.133333 4.266667-42.666667-12.8l-64-106.666667-119.466666-170.666666c-29.866667-42.666667-51.2-64-64-64-17.066667 0-38.4 21.333333-72.533334 64-119.466667 179.2-192 294.4-221.866666 349.866666-17.066667 34.133333-21.333333 68.266667-8.533334 93.866667 8.533333 17.066667 17.066667 25.6 29.866667 29.866667 25.6 4.266667 68.266667-8.533333 106.666667-21.333334 38.4-12.8 72.533333-25.6 106.666666-25.6z" fill="#4aca62" p-id="9768"></path><path d="M93.866667 806.229333l106.666666-17.066666c89.6-12.8 183.466667-8.533333 273.066667 12.8l68.266667 17.066666c89.6 21.333333 183.466667 25.6 273.066666 12.8l106.666667-17.066666c17.066667-4.266667 29.866667 8.533333 29.866667 21.333333v4.266667c0 17.066667-12.8 34.133333-29.866667 38.4l-106.666667 17.066666c-89.6 12.8-183.466667 8.533333-273.066666-12.8l-68.266667-17.066666c-89.6-21.333333-183.466667-25.6-273.066667-12.8l-106.666666 17.066666c-17.066667 4.266667-29.866667-8.533333-29.866667-21.333333v-4.266667c0-21.333333 12.8-34.133333 29.866667-38.4z" fill="#0091FF" p-id="9769"></path></svg>