<svg xmlns="http://www.w3.org/2000/svg" xmlns:xlink="http://www.w3.org/1999/xlink" width="25" height="25" viewBox="0 0 25 25" fill="none"><path d="M0 12.8205C0 18.4066 3.48214 23.1685 8.39286 24.9084C9.01786 25.0916 8.92857 24.6337 8.92857 24.2674L8.92857 22.0696C5.17857 22.5275 5 19.9634 4.73214 19.5055C4.19643 18.5897 3.03571 18.4066 3.39286 17.9487C4.28571 17.4908 5.17857 18.0403 6.16071 19.5971C6.875 20.696 8.30357 20.5128 9.10714 20.3297C9.28571 19.6886 9.64286 19.0476 10.0893 18.5897C6.07143 17.9487 4.46429 15.4762 4.46429 12.5458C4.46429 11.1722 4.91071 9.79853 5.80357 8.79121C5.17857 7.05128 5.80357 5.49451 5.89286 5.31136C7.5 5.12821 9.19643 6.50183 9.375 6.59341C10.2679 6.31868 11.3393 6.22711 12.5 6.22711C13.6607 6.22711 14.7321 6.41026 15.625 6.59341C15.9821 6.31868 17.5 5.21978 19.0179 5.31136C19.1071 5.49451 19.7321 6.95971 19.1964 8.69963C20.0893 9.79853 20.5357 11.0806 20.5357 12.4542C20.5357 15.3846 18.9286 17.8571 14.9107 18.5897C15.5357 19.2308 15.9821 20.1465 15.9821 21.2454L15.9821 24.4506C15.9821 24.7253 15.9821 25 16.4286 25C21.4286 23.2601 25 18.4982 25 12.8205C25 5.76923 19.375 0 12.5 0C5.625 0 0 5.76923 0 12.8205Z"   fill="#040000" ></path></svg>