<svg xmlns="http://www.w3.org/2000/svg" xmlns:xlink="http://www.w3.org/1999/xlink" width="36" height="36" viewBox="0 0 36 36" fill="none">
<path d="M28.9943 21.5578C28.4318 19.7508 27.785 18.232 26.7901 15.7465C26.9448 9.21798 24.2306 3.9375 17.9799 3.9375C11.6588 3.9375 9.00455 9.32346 9.1733 15.7465C8.17485 18.2355 7.53149 19.7437 6.969 21.5578C5.77368 25.4074 6.1604 27 6.45571 27.0352C7.08852 27.1125 8.92016 24.1383 8.92016 24.1383C8.92016 25.861 9.80609 28.1074 11.7256 29.7281C10.7975 30.0129 8.71274 30.7793 9.2084 31.6195C9.60926 32.298 16.1061 32.052 17.9799 31.841C19.8538 32.052 26.3506 32.298 26.7514 31.6195C27.2471 30.7828 25.1588 30.0129 24.2342 29.7281C26.1538 28.1039 27.0396 25.8575 27.0396 24.1383C27.0396 24.1383 28.8713 27.1125 29.5041 27.0352C29.803 26.9965 30.1896 25.4039 28.9943 21.5578Z"   fill="#E0E5ED" >
</path>
</svg>
