<svg xmlns="http://www.w3.org/2000/svg" xmlns:xlink="http://www.w3.org/1999/xlink" width="36" height="36" viewBox="0 0 36 36" fill="none">
<path d="M23.3521 12.9562C23.7042 12.9562 24.0515 12.982 24.3953 13.0193C23.4585 8.7018 18.7929 5.49316 13.4679 5.49316C7.51405 5.49316 2.63672 9.50913 2.63672 14.6083C2.63672 17.5511 4.25971 19.9682 6.97085 21.8429L5.88773 25.0678L9.67365 23.1885C11.0292 23.4535 12.1156 23.7267 13.4679 23.7267C13.8076 23.7267 14.1439 23.7102 14.4787 23.6836C14.2669 22.9676 14.1439 22.2168 14.1439 21.4385C14.1439 16.7562 18.2073 12.9562 23.3521 12.9562ZM17.5296 10.0499C18.3451 10.0499 18.885 10.5815 18.885 11.3881C18.885 12.1912 18.3451 12.7294 17.5296 12.7294C16.7171 12.7294 15.9032 12.1912 15.9032 11.3881C15.9032 10.5815 16.7172 10.0499 17.5296 10.0499ZM9.94941 12.7294C9.13707 12.7294 8.31804 12.1911 8.31804 11.388C8.31804 10.5814 9.13707 10.0498 9.94941 10.0498C10.7608 10.0498 11.3016 10.5814 11.3016 11.388C11.3016 12.1912 10.7608 12.7294 9.94941 12.7294ZM33.238 21.3097C33.238 17.0245 28.9047 13.5319 24.0382 13.5319C18.885 13.5319 14.8267 17.0245 14.8267 21.3097C14.8267 25.601 18.885 29.0862 24.0382 29.0862C25.1163 29.0862 26.2045 28.8187 27.2875 28.5497L30.2586 30.1594L29.4438 27.4815C31.6184 25.8668 33.238 23.7267 33.238 21.3097ZM21.0513 19.9682C20.5122 19.9682 19.9682 19.4374 19.9682 18.8959C19.9682 18.3618 20.5122 17.8244 21.0513 17.8244C21.8703 17.8244 22.4068 18.3618 22.4068 18.8959C22.4068 19.4374 21.8703 19.9682 21.0513 19.9682ZM27.0084 19.9682C26.4736 19.9682 25.9329 19.4374 25.9329 18.8959C25.9329 18.3618 26.4736 17.8244 27.0084 17.8244C27.8208 17.8244 28.3639 18.3618 28.3639 18.8959C28.3639 19.4374 27.8208 19.9682 27.0084 19.9682Z"   fill="#E0E5ED" >
</path>
</svg>
